<?xml version="1.0" encoding="utf-8"?>
<!-- Generator: Adobe Illustrator 16.0.4, SVG Export Plug-In . SVG Version: 6.00 Build 0)  -->
<!DOCTYPE svg PUBLIC "-//W3C//DTD SVG 1.1//EN" "http://www.w3.org/Graphics/SVG/1.1/DTD/svg11.dtd" [
	<!ENTITY ns_flows "http://ns.adobe.com/Flows/1.0/">
	<!ENTITY ns_extend "http://ns.adobe.com/Extensibility/1.0/">
	<!ENTITY ns_ai "http://ns.adobe.com/AdobeIllustrator/10.0/">
	<!ENTITY ns_graphs "http://ns.adobe.com/Graphs/1.0/">
	<!ENTITY ns_vars "http://ns.adobe.com/Variables/1.0/">
	<!ENTITY ns_imrep "http://ns.adobe.com/ImageReplacement/1.0/">
	<!ENTITY ns_sfw "http://ns.adobe.com/SaveForWeb/1.0/">
	<!ENTITY ns_custom "http://ns.adobe.com/GenericCustomNamespace/1.0/">
	<!ENTITY ns_adobe_xpath "http://ns.adobe.com/XPath/1.0/">
]>
<svg version="1.1" id="Ebene_1" xmlns:x="&ns_extend;" xmlns:i="&ns_ai;" xmlns:graph="&ns_graphs;"
	 xmlns="http://www.w3.org/2000/svg" xmlns:xlink="http://www.w3.org/1999/xlink" xmlns:a="http://ns.adobe.com/AdobeSVGViewerExtensions/3.0/"
	 x="0px" y="0px" width="498.883px" height="145.746px" viewBox="0 0 498.883 145.746" enable-background="new 0 0 498.883 145.746"
	 xml:space="preserve">
<metadata>
	<sfw  xmlns="&ns_sfw;">
		<slices></slices>
		<sliceSourceBounds  height="110.551" width="428.746" bottomLeftOrigin="true" x="140" y="-410.66"></sliceSourceBounds>
	</sfw>
</metadata>
<g>
	<path fill="#FF8F00" d="M446.171,79.573h-0.019v4.527c0,2.012-0.344,3.604-1.028,4.772c-0.685,1.167-1.914,2.012-3.685,2.537
		c-1.773,0.523-4.351,0.786-7.733,0.786c-3.706,0-6.365-0.202-7.975-0.605c-1.612-0.402-2.68-1.146-3.202-2.234
		c-0.525-1.087-0.786-2.84-0.786-5.256l-0.058-4.527c0.089-0.463,0.188-0.883,0.314-1.201c0.429-1.088,1.246-1.812,2.452-2.175
		c1.204-0.363,3.27-0.544,6.196-0.544h15.522V79.573z M298.814,77.278h-0.034v5.599c0,0.137,0.014,0.248,0.015,0.382v0.842
		c0,2.012-0.344,3.604-1.027,4.772c-0.685,1.167-1.914,2.012-3.685,2.537c-1.772,0.523-4.35,0.786-7.733,0.786
		c-3.707,0-6.364-0.202-7.976-0.605c-1.612-0.402-2.679-1.146-3.202-2.234c-0.525-1.087-0.785-2.84-0.785-5.256l-0.058-4.527
		c0.088-0.463,0.188-0.883,0.313-1.201c0.431-1.088,1.248-1.812,2.453-2.175c1.205-0.363,3.27-0.544,6.196-0.544h15.522V77.278z
		 M225.73,77.278h-0.066v5.599c0,0.579,0.047,1.079,0.065,1.628c-0.004,2.158-0.325,3.781-0.966,4.862
		c-0.645,1.088-1.893,1.834-3.745,2.236c-1.855,0.403-4.754,0.604-8.701,0.604c-3.222,0-5.599-0.242-7.129-0.725
		c-1.531-0.483-2.558-1.309-3.081-2.478c-0.525-1.167-0.785-2.879-0.785-5.135V61.274c0-2.417,0.26-4.169,0.785-5.256
		c0.523-1.088,1.59-1.832,3.202-2.236c1.611-0.402,4.269-0.604,7.975-0.604c3.383,0,5.961,0.263,7.734,0.785
		c1.77,0.525,2.999,1.371,3.685,2.538c0.683,1.169,1.027,2.76,1.027,4.773V77.278z M151.908,75.653v1.625h-0.035v5.599
		c0,0.138,0.015,0.25,0.016,0.387v0.837c0,2.012-0.344,3.604-1.027,4.772c-0.686,1.167-1.915,2.012-3.686,2.537
		c-1.773,0.523-4.35,0.786-7.733,0.786c-3.706,0-6.365-0.202-7.975-0.605c-1.612-0.402-2.679-1.146-3.202-2.234
		c-0.525-1.087-0.786-2.84-0.786-5.256l-0.058-4.527c0.089-0.463,0.188-0.883,0.315-1.201c0.429-1.088,1.246-1.812,2.452-2.175
		c1.204-0.363,3.27-0.544,6.196-0.544H151.908z M77.118,84.101c0,2.012-0.343,3.604-1.027,4.772
		c-0.685,1.166-1.914,2.012-3.685,2.537c-1.773,0.523-4.35,0.785-7.734,0.785c-3.706,0-6.364-0.201-7.975-0.604
		c-1.612-0.403-2.679-1.147-3.202-2.234c-0.525-1.088-0.785-2.84-0.785-5.256V61.504c0-2.256,0.26-3.969,0.785-5.136
		c0.523-1.168,1.55-1.993,3.081-2.477c1.53-0.483,3.907-0.726,7.13-0.726c3.946,0,6.846,0.2,8.7,0.605
		c1.852,0.401,3.1,1.146,3.745,2.234c0.644,1.087,0.967,2.72,0.967,4.895V84.101z M463.814,79.663V61.757
		c0-5.234-0.948-9.223-2.84-11.962c-1.895-2.737-5.015-4.671-9.358-5.8c-4.347-1.128-10.841-1.692-18.844-1.692
		c-9.122,0-17.083,0.404-23.88,1.208v11.117c9.294-0.967,16.606-1.45,21.943-1.45c3.873,0,6.777,0.242,8.713,0.726
		c1.937,0.482,3.271,1.329,4.002,2.537c0.73,1.209,1.098,3.062,1.098,5.559v3.987h-21.17c-4.905,0-8.933,0.586-11.728,1.752
		c-2.798,1.169-4.821,3.081-6.066,5.74c-0.769,1.634-1.402,4.205-1.582,6.095c-0.181,1.89,0,3.439,0,3.439
		c0,3.609,0.385,6.57,1.082,9.009c-0.618,0.021-1.246,0.04-1.93,0.04c-3.707,0-6.364-0.202-7.975-0.605
		c-1.613-0.404-2.68-1.146-3.203-2.234c-0.524-1.088-0.785-2.841-0.785-5.257v-6.687h-0.02V64.536c0-3.302-0.081-5.758-0.241-7.371
		c-0.163-1.609-0.525-3.383-1.088-5.315c-0.564-1.771-1.432-3.161-2.598-4.169c-1.168-1.007-2.961-2.033-5.377-3.081
		c-2.097-0.887-4.773-1.49-8.035-1.813c-3.264-0.321-7.432-0.483-12.506-0.483c-8.299,0-14.521,0.564-18.67,1.692
		c-4.15,1.129-7.05,3.081-8.699,5.86c-1.652,2.778-2.478,6.947-2.478,12.506v29.593c-0.981,0.063-2.022,0.107-3.196,0.107
		c-3.707,0-6.365-0.202-7.976-0.605c-1.612-0.404-2.679-1.146-3.202-2.234c-0.525-1.088-0.786-2.841-0.786-5.257v-0.81
		c0.011-0.719,0.017-1.492,0.017-2.318v-1.174h0.02V61.757c0-5.234-0.947-9.223-2.839-11.962c-1.894-2.737-5.015-4.671-9.358-5.8
		c-4.347-1.128-10.841-1.692-18.844-1.692c-9.123,0-17.084,0.404-23.881,1.208v11.117c9.294-0.967,16.607-1.45,21.945-1.45
		c3.871,0,6.775,0.242,8.713,0.726c1.936,0.482,3.269,1.329,4.001,2.537c0.729,1.209,1.097,3.062,1.097,5.559v3.987h-21.169
		c-4.905,0-8.933,0.586-11.728,1.752c-2.797,1.169-4.82,3.081-6.067,5.74c-0.767,1.634-1.401,4.205-1.582,6.095s0,3.439,0,3.439
		c0,3.6,0.384,6.554,1.076,8.987c-0.796,0.038-1.64,0.062-2.554,0.062c-3.705,0-6.363-0.202-7.975-0.605
		c-1.612-0.404-2.679-1.146-3.202-2.234c-0.378-0.784-0.615-1.928-0.72-3.403V64.536c0-3.302-0.081-5.758-0.241-7.371
		c-0.163-1.609-0.525-3.383-1.088-5.315c-0.564-1.771-1.431-3.161-2.598-4.169c-1.168-1.007-2.96-2.033-5.377-3.081
		c-2.095-0.887-4.772-1.49-8.035-1.813c-3.262-0.321-7.431-0.483-12.506-0.483c-8.298,0-14.521,0.564-18.669,1.692
		c-4.15,1.129-7.05,3.081-8.7,5.86c-1.652,2.778-2.477,6.947-2.477,12.506v20.421c0,3.657,0.245,6.717,0.73,9.191
		c-0.907,0.052-1.865,0.088-2.932,0.088c-3.707,0-6.365-0.202-7.975-0.605c-1.613-0.404-2.679-1.146-3.203-2.234
		s-0.785-2.841-0.785-5.257v-0.81c0.01-0.719,0.015-1.492,0.015-2.318v-1.174h0.021V61.757c0-5.234-0.948-9.223-2.84-11.962
		c-1.893-2.737-5.014-4.671-9.358-5.8c-4.347-1.128-10.84-1.692-18.844-1.692c-9.122,0-17.083,0.404-23.88,1.208v11.117
		c9.294-0.967,16.607-1.45,21.944-1.45c3.873,0,6.777,0.242,8.713,0.726c1.937,0.482,3.27,1.329,4.002,2.537
		c0.73,1.209,1.097,3.062,1.097,5.559v3.987h-21.17c-4.905,0-8.932,0.586-11.727,1.752c-2.798,1.169-4.821,3.081-6.067,5.74
		c-0.768,1.634-1.402,4.205-1.582,6.095c-0.18,1.89,0,3.439,0,3.439c0,3.547,0.374,6.463,1.046,8.878
		c-1.206,0.108-2.557,0.171-4.098,0.171c-3.706,0-6.364-0.202-7.975-0.605c-1.612-0.404-2.679-1.146-3.202-2.234
		c-0.525-1.088-0.786-2.841-0.786-5.257v-6.687H94.76V18.246c0,0-4.037-0.585-8.533-0.585s-9.109,0.585-9.109,0.585v31.779
		c-1.371-2.338-2.658-4.029-3.866-5.075c-1.209-1.048-2.84-1.771-4.894-2.175c-2.054-0.403-5.096-0.604-9.123-0.604
		c-6.929,0-12.044,0.504-15.346,1.511c-3.304,1.006-5.6,2.919-6.887,5.738c-1.29,2.819-1.934,7.209-1.934,13.171v20.422
		c0,5.559,0.825,9.727,2.477,12.506c1.65,2.779,4.55,4.731,8.7,5.86c4.148,1.127,10.371,1.691,18.669,1.691
		c5.075,0,9.244-0.162,12.506-0.483c3.263-0.322,5.94-0.927,8.036-1.812c0.238-0.104,0.442-0.206,0.668-0.31
		c0.712,0.282,1.43,0.56,2.236,0.778c4.148,1.127,10.371,1.692,18.669,1.692c5.075,0,9.243-0.163,12.506-0.484
		c1.36-0.134,2.594-0.329,3.751-0.562c4.033,0.782,9.485,1.181,16.399,1.181c5.074,0,9.243-0.163,12.506-0.484
		c3.262-0.322,5.939-0.927,8.035-1.812c0.226-0.099,0.42-0.195,0.635-0.293c0.699,0.274,1.4,0.547,2.19,0.762
		c4.148,1.127,10.37,1.692,18.668,1.692c5.075,0,9.244-0.163,12.506-0.484c0.341-0.033,0.648-0.083,0.976-0.123
		c3.171,0.581,7.381,0.874,12.646,0.874c4.027,0,7.068-0.202,9.123-0.604c2.054-0.404,3.685-1.127,4.893-2.176
		c1.209-1.046,2.496-2.737,3.867-5.074v31.778c0,0,5.721,1.08,9.383,1.084c3.662,0.003,8.258-1.084,8.258-1.084V102.38
		c3.381,0.366,7.411,0.557,12.139,0.557c5.075,0,9.244-0.163,12.506-0.484c1.061-0.104,2.035-0.25,2.971-0.414
		c3.947,0.686,9.137,1.033,15.605,1.033c5.074,0,9.243-0.163,12.506-0.484c3.263-0.322,5.939-0.927,8.035-1.812
		c0.227-0.099,0.42-0.195,0.635-0.293c0.699,0.274,1.399,0.547,2.189,0.762c4.148,1.127,10.139,1.517,18.475,1.771
		c4.08,0.124,14.848,0.045,14.848,0.045h5.943V61.274c0-2.417,0.26-4.169,0.785-5.256c0.523-1.088,1.59-1.832,3.202-2.236
		c1.61-0.402,4.269-0.604,7.976-0.604c3.383,0,5.959,0.263,7.732,0.785c1.771,0.525,3,1.371,3.686,2.538
		c0.684,1.169,1.027,2.76,1.027,4.773v23.2c0,0.333,0.051,0.654,0.121,0.97c0.227,4.265,0.995,7.617,2.375,9.939
		c1.651,2.779,4.551,4.731,8.7,5.86c4.149,1.127,10.371,1.692,18.669,1.692c5.075,0,9.244-0.163,12.507-0.484
		c0.939-0.093,1.815-0.216,2.657-0.354c3.906,0.647,8.998,0.974,15.288,0.974c5.074,0,9.243-0.163,12.506-0.484
		c3.262-0.322,5.939-0.927,8.035-1.812c2.417-1.048,4.208-2.075,5.377-3.081c1.167-1.009,2.034-2.398,2.598-4.169
		c0.563-1.935,0.925-3.706,1.088-5.317c0.16-1.611,0.241-4.068,0.241-7.371v-1.174H463.814z"/>
</g>
</svg>
